<svg class="img-fluid" id="outputsvg" xmlns="http://www.w3.org/2000/svg" style="cursor: move; max-height: 477.34px; transition: none;" width="2000" height="1912" viewBox="0 0 20000 19120"><g id="l6q8vGYlazvtbAuhL1UwEdn" fill="rgb(230,230,230)" stroke="rgb(47,47,47)" stroke-width="10" style="transform: none;"><g style="transform: none;"><path id="pM2ndeQdf" d="M2800 17958 c-19 -5 -46 -18 -61 -29 -29 -20 -79 -116 -79 -152 0 -12 17 -69 37 -125 37 -101 38 -103 50 -75 21 48 16 108 -11 140 l-24 28 27 67 c14 36 29 69 32 73 4 3 21 -19 38 -50 29 -50 39 -59 109 -93 61 -29 80 -44 94 -72 9 -19 37 -78 62 -130 25 -52 84 -147 131 -210 134 -182 171 -264 195 -435 9 -65 97 -475 140 -650 5 -22 19 -85 31 -140 12 -55 24 -103 28 -107 3 -3 35 11 70 33 36 21 68 39 72 39 5 0 0 -19 -10 -43 -50 -115 -78 -317 -51 -367 6 -11 29 -32 53 -48 23 -16 95 -92 160 -168 l118 -139 133 -345 132 -345 34 -3 c48 -3 149 -21 186 -33 24 -7 41 -26 70 -76 66 -112 180 -224 308 -300 61 -36 219 -141 351 -233 348 -242 395 -272 409 -267 19 8 27 59 15 101 -14 52 -77 109 -183 166 -55 30 -123 78 -171 122 -44 40 -112 100 -150 133 -302 259 -415 399 -415 514 0 57 -34 153 -115 321 -46 96 -109 234 -140 305 -94 215 -237 499 -350 695 -136 233 -144 252 -250 555 -139 399 -194 522 -304 683 -32 48 -89 134 -126 192 -37 58 -91 132 -120 165 -29 33 -73 92 -99 132 -44 68 -52 75 -130 114 -80 39 -183 69 -236 68 -14 -1 -41 -5 -60 -11z"></path><path id="pbZ5l35is" d="M14588 17935 c-58 -13 -184 -33 -280 -45 -95 -12 -252 -35 -348 -51 -187 -32 -478 -62 -780 -80 -102 -6 -585 -14 -1075 -19 -700 -6 -918 -11 -1020 -24 -374 -44 -552 -114 -662 -261 -62 -82 -94 -149 -178 -370 -118 -308 -196 -462 -456 -896 -81 -136 -179 -307 -219 -380 -80 -150 -123 -212 -177 -260 l-37 -32 -51 57 c-51 59 -87 75 -161 76 -17 0 -67 18 -112 40 -86 43 -126 50 -136 24 -25 -65 190 -197 386 -238 34 -8 46 -41 22 -67 -13 -15 -30 -19 -78 -19 -125 1 -178 14 -246 64 -59 44 -65 46 -129 46 -49 0 -92 8 -154 30 -48 17 -99 30 -114 30 -16 0 -63 20 -107 45 -110 63 -147 60 -346 -30 -44 -20 -112 -42 -152 -50 -95 -18 -108 -23 -108 -46 0 -44 85 -47 325 -12 122 18 256 10 465 -27 262 -46 493 -155 515 -243 17 -68 -24 -137 -94 -157 -20 -5 -78 -10 -128 -10 -80 0 -96 -3 -113 -20 -25 -25 -25 -32 -2 -60 15 -19 34 -24 114 -33 52 -5 111 -7 131 -3 20 4 74 34 124 70 127 91 145 99 216 94 57 -4 63 -7 101 -50 23 -25 62 -83 88 -129 95 -173 365 -559 481 -689 64 -72 89 -122 85 -168 -3 -36 -4 -37 -63 -51 -56 -14 -79 -12 -440 33 -209 25 -423 51 -476 56 -153 15 -140 4 -255 213 -74 135 -144 217 -184 217 -38 0 -85 -47 -128 -127 -37 -70 -76 -121 -186 -243 -42 -47 -82 -98 -90 -115 -8 -16 -22 -73 -31 -125 -17 -100 -31 -131 -74 -166 -15 -12 -42 -45 -61 -73 -31 -46 -48 -58 -150 -111 -63 -32 -129 -73 -147 -92 -17 -18 -55 -82 -83 -143 -85 -182 -104 -198 -250 -210 -47 -4 -164 -26 -260 -50 -199 -49 -216 -49 -372 4 l-88 30 0 -22 c-1 -59 -63 -80 -235 -80 -203 -1 -438 56 -806 193 -102 39 -175 60 -202 60 -23 0 -98 -12 -167 -26 -249 -52 -326 -24 -699 255 -323 242 -481 382 -631 556 -77 90 -182 237 -235 328 -16 28 -34 47 -44 47 -38 0 -141 -62 -187 -113 -132 -147 -170 -346 -104 -552 54 -167 52 -229 -15 -405 -44 -116 -49 -162 -31 -320 18 -156 37 -259 101 -535 26 -110 62 -267 81 -349 43 -185 68 -344 89 -556 9 -91 23 -223 31 -295 8 -71 19 -259 24 -417 l9 -287 40 -118 c21 -65 59 -176 84 -248 30 -86 71 -251 122 -490 56 -259 95 -416 141 -559 82 -255 90 -289 103 -419 19 -191 87 -458 134 -529 12 -18 48 -51 79 -73 31 -22 94 -75 140 -117 79 -72 97 -83 318 -189 441 -209 1134 -523 1495 -676 172 -73 351 -165 398 -204 l39 -32 -44 -27 c-23 -16 -82 -68 -129 -117 -72 -73 -88 -95 -93 -128 -3 -22 -14 -51 -25 -65 -19 -25 -31 -27 -83 -14 -23 5 -30 1 -48 -27 -17 -28 -20 -47 -18 -105 3 -62 9 -83 49 -160 160 -309 178 -348 233 -514 40 -123 87 -236 158 -381 81 -166 100 -212 94 -233 -4 -15 -40 -63 -81 -107 -41 -44 -81 -92 -89 -107 -18 -36 -103 -346 -109 -402 -3 -25 -24 -86 -47 -137 -57 -129 -80 -227 -80 -340 0 -71 -9 -134 -35 -253 -77 -349 -75 -462 13 -721 16 -47 33 -115 37 -150 4 -38 27 -118 57 -198 28 -74 68 -183 89 -243 43 -122 64 -157 113 -188 19 -11 46 -40 60 -64 20 -34 37 -48 71 -61 34 -13 59 -35 107 -94 190 -232 404 -415 657 -559 152 -88 299 -146 491 -194 199 -50 363 -68 626 -68 l210 0 400 135 c523 177 477 158 509 209 16 25 48 55 80 74 66 40 96 97 121 228 9 49 25 125 36 169 27 111 31 142 21 148 -6 4 -36 10 -69 15 -53 9 -63 14 -99 57 -88 105 -120 132 -167 139 -24 4 -75 2 -113 -4 -171 -25 -231 -30 -400 -32 l-180 -3 -83 38 c-83 39 -152 57 -152 41 0 -5 5 -25 10 -44 6 -19 7 -48 4 -64 -6 -26 -9 -28 -44 -23 -50 6 -278 102 -376 158 -103 58 -198 147 -220 205 -15 39 -16 55 -5 132 13 90 42 218 59 263 13 32 29 39 93 39 27 0 49 1 49 3 0 2 -11 37 -25 77 -35 102 -33 152 9 243 60 133 59 147 -29 259 -134 171 -202 360 -181 500 4 26 29 84 61 139 45 79 63 128 114 306 33 116 74 246 91 289 16 43 30 84 30 91 0 8 -18 48 -39 91 -53 105 -82 201 -88 299 l-6 82 32 27 c17 14 53 62 79 107 l48 80 84 23 c47 12 117 34 155 48 143 51 494 147 615 168 83 14 174 21 273 22 l147 1 45 91 c65 133 126 174 261 174 67 0 80 3 106 25 43 36 83 32 165 -15 38 -21 98 -46 133 -54 69 -16 130 -53 164 -99 23 -32 28 -106 7 -131 -19 -23 -78 -29 -113 -12 -37 19 -38 19 -38 4 0 -6 25 -37 55 -69 30 -32 55 -62 55 -68 0 -19 -42 -33 -84 -27 -23 3 -90 26 -151 51 -129 52 -205 60 -262 25 -18 -11 -33 -24 -33 -29 0 -13 85 -82 145 -119 28 -16 88 -47 135 -68 47 -21 108 -52 136 -70 38 -24 73 -35 130 -44 106 -16 193 -58 267 -131 33 -32 64 -56 68 -54 14 9 20 172 10 280 -6 61 -16 175 -22 255 -8 111 -15 152 -30 176 -10 17 -19 37 -19 43 0 19 81 101 124 126 101 59 258 101 466 125 147 17 182 25 310 70 302 106 487 142 950 184 132 13 154 17 245 56 67 27 147 51 241 69 l141 28 237 129 c224 122 238 132 271 180 68 104 228 450 285 620 15 45 44 104 63 132 42 61 57 109 97 307 34 170 55 241 106 352 82 182 211 388 461 738 294 413 413 644 523 1022 22 76 52 197 66 268 14 72 28 138 30 148 3 9 65 62 137 116 176 131 244 212 360 431 l55 105 187 67 c103 37 188 68 189 70 1 2 30 50 63 108 81 141 142 278 192 435 l41 130 140 150 c77 83 147 163 156 179 10 17 20 71 25 135 5 58 14 130 20 159 19 95 56 99 454 42 110 -16 281 -38 380 -50 215 -24 370 -51 525 -90 157 -39 255 -52 305 -40 43 10 81 46 91 86 17 66 -85 203 -200 271 -72 42 -206 97 -286 118 -31 8 -107 21 -168 29 -126 17 -174 35 -191 74 -19 41 -24 112 -12 177 14 74 38 100 191 206 63 43 153 106 200 140 224 161 570 386 705 459 107 57 189 116 218 154 32 42 50 100 42 136 -16 72 -85 115 -203 126 -112 11 -228 -20 -450 -118 -74 -32 -168 -70 -210 -83 -84 -27 -213 -46 -271 -40 -20 2 -43 0 -51 -6 -12 -8 -9 -15 20 -39 47 -40 92 -54 170 -55 78 0 118 14 280 101 309 166 495 202 617 121 42 -28 48 -37 51 -72 l3 -40 -88 -56 c-48 -31 -178 -107 -288 -169 -110 -62 -239 -139 -286 -171 -216 -145 -696 -522 -749 -588 -26 -34 -38 -41 -66 -41 -65 0 -59 -74 13 -141 25 -24 55 -53 67 -64 l21 -20 -23 -3 c-13 -2 -57 8 -98 22 -83 29 -134 34 -134 12 0 -8 23 -35 51 -60 78 -70 126 -80 325 -72 173 7 228 1 391 -48 176 -53 308 -121 343 -178 39 -62 4 -128 -67 -128 -20 0 -140 20 -267 45 -127 25 -278 51 -336 60 -58 8 -211 30 -340 49 -129 19 -308 42 -397 50 -179 17 -234 33 -326 94 -230 151 -433 491 -567 948 -55 190 -117 628 -100 710 22 105 99 175 240 219 47 14 131 49 188 76 148 72 240 95 296 73 20 -8 32 -55 46 -179 16 -147 28 -218 45 -259 15 -35 17 -36 69 -36 83 0 124 45 150 163 4 15 11 27 16 27 6 0 10 -12 10 -27 1 -40 33 -106 65 -131 14 -12 51 -30 81 -42 30 -11 73 -29 94 -40 50 -25 100 -25 132 0 14 11 40 48 57 82 18 35 40 71 49 82 52 58 188 109 336 126 97 10 100 10 124 -12 46 -44 62 -76 73 -152 6 -42 15 -76 19 -76 11 0 50 82 50 106 0 79 -79 181 -158 205 -35 10 -49 8 -147 -25 -122 -42 -133 -39 -156 33 -46 142 -149 236 -236 215 -15 -4 -50 -22 -77 -41 -26 -18 -60 -33 -75 -33 -38 0 -81 48 -141 159 -72 133 -145 225 -268 338 -166 154 -168 154 -240 94 -26 -21 -85 -58 -132 -81 -134 -65 -270 -181 -440 -374 -98 -112 -153 -152 -405 -295 -99 -57 -209 -124 -245 -149 -95 -68 -270 -247 -402 -412 -82 -103 -135 -159 -182 -194 -55 -40 -73 -60 -101 -116 l-34 -68 -138 -72 c-298 -157 -320 -184 -330 -397 -4 -80 -11 -129 -19 -137 -7 -7 -54 -19 -105 -26 -139 -19 -348 -74 -424 -111 -116 -57 -215 -179 -215 -265 0 -72 63 -174 192 -311 32 -34 58 -70 58 -80 0 -11 -28 -37 -72 -68 -148 -103 -342 -279 -392 -357 -10 -16 -22 -28 -27 -28 -19 0 -7 48 31 130 22 47 40 91 40 98 0 8 -10 46 -21 84 -21 70 -22 78 -16 712 l5 641 46 240 c92 481 220 1032 292 1259 44 139 205 548 254 646 75 150 133 374 229 885 57 302 90 699 91 1088 0 112 -3 147 -12 146 -7 -1 -61 -12 -120 -24z m-4538 -4402 c11 -43 25 -160 39 -338 6 -66 26 -268 45 -450 20 -181 40 -375 46 -430 6 -55 15 -163 20 -240 12 -167 46 -626 60 -815 41 -535 62 -826 75 -1030 11 -165 24 -281 45 -390 108 -568 139 -774 161 -1075 12 -175 8 -420 -11 -575 -5 -47 -17 -141 -25 -210 -28 -239 -15 -622 35 -959 11 -75 20 -171 20 -215 0 -149 -51 -386 -83 -386 -7 0 -50 27 -97 60 l-84 61 -81 157 c-92 180 -128 237 -213 343 -139 172 -400 386 -659 538 l-71 42 -224 -79 c-670 -239 -912 -378 -1140 -654 -139 -168 -196 -261 -223 -367 -11 -44 -12 -45 -24 -23 -44 81 -41 701 4 963 25 143 72 293 134 427 41 86 71 172 96 267 68 263 357 1204 473 1540 125 360 155 437 387 980 461 1082 432 1009 535 1310 177 517 206 586 361 870 54 100 135 265 179 366 96 219 171 349 201 349 5 0 13 -17 19 -37z"></path><path id="p14OXliAoe" d="M9380 11916 c0 -37 -32 -249 -48 -316 l-18 -75 -7 57 c-4 31 -10 63 -13 72 -8 20 -53 21 -79 3 -17 -14 -17 -16 3 -93 31 -115 41 -221 53 -584 13 -384 6 -1096 -16 -1710 -9 -239 -19 -538 -23 -663 l-7 -229 -50 -41 c-164 -136 -235 -227 -235 -303 0 -73 141 -269 216 -300 17 -7 60 -16 96 -20 200 -20 369 148 331 330 -19 88 -53 147 -140 237 l-83 86 0 134 c0 74 7 377 15 674 7 297 19 752 25 1010 22 908 40 1398 55 1480 15 84 19 185 9 222 -4 12 -19 26 -36 32 -41 14 -48 14 -48 -3z"></path><path id="phVIcAbHf" d="M8364 8562 c-43 -55 -146 -172 -413 -466 l-26 -29 55 29 c40 20 108 82 253 227 l197 200 143 -214 c204 -304 258 -380 360 -501 50 -60 92 -108 94 -108 2 0 -21 35 -52 78 -132 186 -403 607 -487 757 -29 52 -57 94 -63 94 -5 0 -33 -30 -61 -67z"></path><path id="pkFJI7qU2" d="M10240 8386 c-131 -54 -249 -126 -333 -205 -27 -25 -100 -113 -162 -196 -121 -161 -165 -207 -262 -273 -73 -50 -83 -62 -50 -62 39 0 160 67 223 123 31 28 109 114 174 191 133 159 184 210 271 266 55 35 155 80 179 80 6 0 10 -36 10 -82 0 -205 55 -570 116 -781 14 -45 13 0 -1 119 -39 339 -65 615 -65 703 0 154 -3 157 -100 117z"></path><path id="pheb64Pmb" d="M9560 17920 c-25 -4 -119 -20 -210 -34 -91 -14 -203 -35 -250 -46 -83 -21 -91 -21 -525 -11 -792 19 -1234 23 -1635 13 -371 -10 -405 -12 -565 -41 -182 -32 -288 -63 -360 -105 l-45 -27 0 -68 c0 -107 -18 -174 -72 -264 -26 -45 -68 -123 -92 -173 -43 -89 -46 -92 -93 -109 -26 -9 -58 -21 -69 -25 -12 -5 -36 -34 -54 -64 -17 -31 -35 -56 -40 -56 -15 0 -68 96 -90 165 -26 81 -54 131 -81 146 -17 9 -22 4 -40 -38 -51 -119 -47 -246 21 -574 33 -159 42 -229 51 -389 11 -203 74 -683 109 -835 16 -68 138 -428 231 -683 43 -118 46 -182 9 -182 -12 0 -28 22 -54 76 -20 42 -66 122 -103 178 -68 105 -139 234 -336 616 -165 321 -207 452 -337 1050 -39 179 -80 359 -90 401 -11 41 -37 181 -59 310 -48 279 -86 461 -106 499 -19 36 -46 46 -63 23 -55 -73 -136 -260 -167 -384 l-16 -64 50 -232 49 -233 47 -54 c63 -74 74 -122 82 -336 l6 -175 34 -28 c41 -36 65 -81 87 -171 18 -75 54 -150 122 -259 57 -92 76 -158 77 -265 l0 -86 58 -57 c58 -57 99 -123 99 -156 0 -10 -7 -27 -15 -37 -8 -11 -15 -33 -15 -48 0 -23 10 -34 58 -65 68 -43 79 -57 88 -103 11 -55 26 -78 131 -195 54 -60 134 -157 178 -215 227 -303 319 -395 532 -536 126 -84 175 -125 329 -275 188 -183 245 -223 305 -217 19 2 37 12 46 24 13 20 11 24 -36 57 -53 38 -96 102 -107 157 l-7 33 46 -32 c62 -42 126 -71 160 -71 16 0 51 7 79 17 48 15 51 15 60 -3 21 -39 136 -140 197 -173 53 -28 67 -32 87 -22 34 15 30 33 -14 69 -38 30 -101 136 -89 148 3 4 41 -13 83 -36 69 -38 81 -41 123 -35 53 7 223 50 263 66 32 13 52 53 69 138 12 62 18 73 110 191 14 19 79 139 143 265 115 227 131 276 104 303 -38 38 -79 -17 -122 -161 -22 -72 -34 -95 -67 -127 -68 -66 -191 -102 -354 -104 l-100 -1 -21 43 c-47 99 -80 103 -187 18 -40 -32 -81 -56 -103 -61 -20 -3 -37 -5 -39 -3 -1 2 -6 62 -10 134 l-7 131 32 26 c32 27 63 38 230 77 103 24 142 41 178 73 44 41 32 57 -97 133 -203 119 -291 249 -340 506 -41 211 -52 322 -54 559 -2 260 2 289 58 371 21 30 36 66 40 96 13 91 3 85 163 103 81 9 119 9 173 0 107 -20 105 -40 -8 -61 -81 -16 -117 -40 -172 -119 -24 -34 -72 -85 -107 -113 -35 -27 -64 -56 -64 -64 0 -7 9 -36 20 -63 10 -27 24 -80 31 -118 20 -119 55 -134 165 -72 29 16 78 35 110 41 51 10 66 19 114 67 52 53 137 181 245 370 36 62 56 87 79 96 60 25 199 32 491 25 281 -6 292 -7 353 -32 75 -31 154 -84 211 -142 37 -37 42 -48 47 -105 8 -69 33 -110 85 -136 38 -20 128 -19 158 1 21 15 81 125 81 150 0 6 26 92 59 190 32 98 61 206 65 239 3 33 15 159 26 280 22 232 41 327 97 489 44 128 70 178 155 304 110 163 129 226 85 277 -18 22 -32 27 -82 30 -33 2 -80 0 -105 -5z m-3379 -1887 c54 -50 128 -148 155 -206 16 -34 16 -37 0 -62 -28 -43 -55 -132 -62 -204 -6 -58 -11 -70 -42 -101 -19 -19 -50 -60 -70 -90 -40 -64 -101 -130 -119 -130 -19 0 -29 26 -48 120 -29 142 -66 190 -150 190 l-35 0 0 -46 c0 -81 57 -267 103 -336 12 -17 46 -50 76 -73 32 -25 67 -65 90 -103 52 -85 68 -101 128 -128 51 -23 90 -61 75 -76 -22 -22 -129 -30 -241 -18 -112 13 -115 14 -157 52 -54 50 -80 112 -115 278 -46 224 -62 362 -55 480 10 167 2 155 111 169 81 12 106 11 193 -4 131 -22 164 -18 176 18 14 39 1 55 -61 76 -28 10 -67 30 -85 45 -18 14 -48 36 -65 49 -59 40 -51 95 11 83 61 -13 70 -12 74 9 5 26 31 55 49 55 8 0 36 -21 64 -47z m-71 -1473 c66 -24 97 -30 165 -30 49 0 87 -4 91 -11 3 -6 -6 -24 -22 -40 -26 -27 -33 -29 -107 -29 l-78 0 -95 66 c-52 36 -94 67 -94 70 0 13 69 0 140 -26z m475 -128 c3 -15 23 -52 43 -82 l37 -55 78 -3 c74 -3 78 -4 88 -29 5 -14 6 -30 2 -34 -10 -10 -237 -79 -261 -79 -42 0 -317 153 -353 196 -19 23 -2 31 89 42 63 8 93 17 125 38 53 35 118 55 134 42 6 -5 14 -21 18 -36z"></path><path id="p12KXonxi1" d="M8246 16289 l-110 -29 -85 21 c-137 34 -204 15 -231 -67 -20 -59 6 -86 111 -115 112 -32 226 -23 344 24 108 45 157 47 275 13 47 -13 99 -27 117 -31 38 -8 92 15 112 47 12 20 11 24 -9 38 -65 43 -275 114 -370 124 -31 3 -78 -4 -154 -25z"></path><path id="pyBSUsiqS" d="M7817 15904 c-27 -8 -19 -62 13 -85 14 -10 70 -30 125 -45 113 -30 212 -34 430 -20 120 8 134 7 185 -13 67 -26 118 -28 127 -5 18 47 -57 77 -237 94 -69 6 -197 25 -285 42 -153 28 -319 43 -358 32z"></path><path id="pdRmyKvTS" d="M8420 15000 c-14 -4 -79 -8 -145 -9 -66 -1 -137 -6 -158 -12 -49 -13 -103 -60 -94 -82 5 -14 22 -17 102 -17 53 0 161 -5 239 -11 123 -9 149 -8 180 5 50 21 50 61 1 105 -37 32 -72 38 -125 21z"></path><path id="p5zhunrWj" d="M17938 14310 c-72 -13 -133 -50 -133 -80 l0 -25 210 3 c173 3 220 1 265 -13 73 -22 116 -29 136 -21 29 11 -11 43 -97 76 -140 54 -287 77 -381 60z"></path><path id="pRW7mHURn" d="M17195 14020 c-153 -18 -290 -57 -310 -90 -8 -13 1 -13 290 5 387 24 546 18 684 -26 60 -19 151 -71 151 -87 0 -4 4 -13 9 -21 8 -12 12 -12 25 -2 27 22 18 52 -28 96 -57 56 -136 93 -232 111 -95 18 -473 27 -589 14z"></path><path id="pOonX144m" d="M5727 13423 c-19 -18 0 -30 70 -41 82 -13 293 -81 358 -115 70 -37 250 -23 470 38 95 26 132 49 106 65 -49 30 -268 39 -476 19 -117 -11 -123 -11 -216 15 -76 20 -119 26 -201 26 -58 0 -108 -3 -111 -7z"></path><path id="pTKqDscbW" d="M10146 5608 c19 -61 77 -98 339 -219 77 -35 183 -92 235 -126 97 -65 129 -74 185 -53 23 9 33 6 70 -21 53 -38 85 -92 69 -117 -8 -13 -30 -18 -87 -22 -78 -6 -87 -10 -149 -71 -49 -47 -88 -53 -185 -28 -93 23 -134 24 -179 3 -49 -24 -94 -68 -94 -94 0 -19 4 -21 28 -15 98 26 89 28 151 -34 64 -65 198 -136 284 -151 129 -23 188 -27 205 -13 16 12 15 15 -12 36 -81 62 -81 61 -66 96 7 19 42 56 80 86 64 51 68 57 84 121 9 37 28 93 41 125 30 71 32 133 5 177 -16 26 -26 32 -53 32 -18 0 -57 7 -85 15 -28 9 -98 17 -154 18 l-103 2 -75 53 c-50 35 -97 58 -135 68 -33 9 -103 39 -155 69 -103 58 -174 85 -221 85 -27 0 -30 -3 -23 -22z"></path><path id="pGjpz025n" d="M9670 4291 c-25 -4 -82 -20 -127 -36 -81 -29 -82 -29 -181 -17 -55 7 -111 10 -124 7 -15 -4 -34 -26 -54 -63 -30 -56 -32 -57 -75 -57 -44 0 -44 0 -47 -37 -7 -81 66 -185 151 -217 45 -16 184 -76 582 -249 73 -31 302 -102 333 -102 17 0 80 68 93 99 7 18 5 42 -10 92 -12 39 -20 91 -19 125 1 71 -37 204 -82 282 -37 64 -106 112 -160 112 -28 0 -44 8 -70 35 -32 33 -37 35 -99 34 -37 -1 -86 -5 -111 -8z"></path><path id="plgBU5sqJ" d="M10748 3961 c-94 -55 -178 -121 -237 -188 -70 -78 -96 -134 -95 -203 1 -96 40 -153 199 -285 63 -53 115 -100 115 -105 0 -6 7 -10 16 -10 24 0 57 87 58 150 0 38 -7 67 -22 95 -29 53 -28 78 8 118 17 19 30 39 30 45 0 6 -16 42 -36 79 -33 65 -35 71 -24 117 6 26 28 81 50 121 38 69 44 105 16 105 -6 0 -41 -18 -78 -39z"></path></g></g></svg>
