<svg class="img-fluid" id="outputsvg" xmlns="http://www.w3.org/2000/svg" style="transform-origin: 50% 50% 0px; cursor: move; max-height: 585.7px; transition: none;" width="898" height="132" viewBox="0 0 8980 1320"><g id="l5oNjsH4U7WCJh9ynFPwtEd" fill="rgb(255,255,255)" style="transform: none;"><g style="transform: none;"><path id="pIKdbgwnT" d="M1910 660 l0 -260 45 0 44 0 111 163 c61 89 115 164 120 165 6 2 10 -61 10 -162 l0 -166 50 0 50 0 0 260 0 260 -43 0 -43 0 -114 -165 c-62 -91 -117 -165 -122 -165 -4 0 -8 74 -8 165 l0 165 -50 0 -50 0 0 -260z"></path><path id="pp4fWnZIE" d="M2525 906 c-69 -30 -112 -119 -102 -208 12 -101 71 -159 168 -166 34 -3 72 1 89 8 61 25 110 106 110 183 l0 27 -135 0 c-130 0 -135 1 -135 21 0 11 13 34 29 50 36 35 86 39 124 9 27 -21 107 -28 107 -10 0 23 -35 62 -71 81 -45 22 -138 25 -184 5z m165 -240 c0 -50 -89 -86 -131 -53 -18 13 -39 50 -39 66 0 7 32 11 85 11 83 0 85 0 85 -24z"></path><path id="p1CMz1WcJ6" d="M2955 911 c-11 -5 -29 -19 -40 -31 -17 -19 -20 -39 -24 -151 -3 -129 -3 -129 -27 -129 -21 0 -24 -5 -24 -35 0 -31 3 -35 25 -35 23 0 25 -4 25 -45 l0 -45 50 0 50 0 0 45 0 45 40 0 c39 0 40 1 40 34 0 33 -2 35 -37 38 l-38 3 -3 104 c-3 111 4 131 43 131 18 0 25 7 30 30 4 16 4 34 0 40 -7 12 -81 12 -110 1z"></path><path id="phJn4W7nz" d="M3204 906 c-33 -15 -74 -60 -74 -82 0 -23 86 -18 110 6 38 38 130 20 130 -25 0 -20 -25 -31 -108 -50 -89 -21 -122 -50 -122 -109 0 -75 54 -116 154 -116 87 0 143 31 160 88 7 20 4 22 -37 22 -32 0 -49 -6 -62 -20 -15 -16 -29 -20 -64 -18 -41 3 -46 6 -49 29 -4 35 10 44 100 63 62 14 82 23 103 47 69 82 -13 180 -151 179 -32 -1 -73 -7 -90 -14z"></path><path id="pg8S7DAN8" d="M3550 661 l0 -261 128 0 c103 0 135 4 169 19 95 43 97 176 4 213 l-26 10 42 18 c100 44 97 193 -5 237 -26 12 -78 18 -174 21 l-138 4 0 -261z m270 149 c27 -27 25 -66 -5 -95 -21 -22 -33 -25 -95 -25 l-70 0 0 70 0 70 75 0 c62 0 79 -4 95 -20z m-26 -211 c26 -20 35 -61 18 -85 -14 -22 -52 -34 -106 -34 l-56 0 0 70 0 70 59 0 c44 0 65 -5 85 -21z"></path><path id="p1GUzqSSM" d="M4020 660 l0 -260 50 0 50 0 0 260 0 260 -50 0 -50 0 0 -260z"></path><path id="pccjgzls7" d="M4320 913 c-111 -42 -153 -211 -78 -316 56 -78 203 -91 277 -24 100 92 69 290 -52 336 -29 11 -121 14 -147 4z m112 -74 c25 -13 48 -68 48 -114 0 -74 -38 -125 -92 -125 -52 1 -78 45 -78 130 0 55 3 65 29 91 31 31 59 36 93 18z"></path><path id="ptmVGjgY4" d="M4630 913 c0 -5 24 -48 54 -98 l55 -90 -31 -55 c-17 -30 -42 -74 -55 -97 l-25 -43 51 0 51 0 35 70 c19 39 37 70 40 70 2 0 20 -31 41 -70 l36 -70 50 0 50 0 -32 58 c-18 31 -43 75 -55 97 l-23 40 53 90 c30 50 54 94 55 98 0 4 -21 7 -47 5 -46 -3 -48 -4 -83 -65 -19 -34 -38 -65 -42 -68 -3 -4 -23 25 -45 64 l-38 71 -47 0 c-27 0 -48 -3 -48 -7z"></path><path id="p7eqPVg55" d="M5230 660 l0 -262 133 4 c109 3 139 8 172 25 79 41 116 105 123 209 8 123 -34 206 -125 250 -48 24 -70 28 -179 32 l-124 5 0 -263z m268 149 c12 -8 32 -33 44 -57 17 -35 20 -56 16 -111 -8 -113 -49 -151 -163 -151 l-65 0 0 171 0 172 73 -5 c39 -3 82 -11 95 -19z"></path><path id="pWyRdZtqf" d="M5795 911 c-55 -23 -79 -95 -50 -150 18 -36 55 -55 125 -65 98 -15 100 -16 100 -45 0 -15 -5 -32 -12 -39 -20 -20 -83 -15 -103 8 -22 24 -105 29 -105 6 0 -23 42 -68 76 -82 81 -34 207 -5 233 53 6 14 11 86 11 173 l0 150 -45 0 c-44 0 -45 -1 -45 -31 l0 -31 -35 31 c-30 26 -44 31 -83 30 -26 0 -56 -4 -67 -8z m158 -79 c10 -10 20 -35 24 -56 l6 -38 -54 7 c-70 9 -99 28 -99 64 0 50 80 65 123 23z"></path><path id="pBXTUSvQl" d="M6223 899 c-25 -12 -47 -33 -57 -52 l-15 -32 46 -3 c35 -2 50 2 67 17 15 14 36 21 62 21 43 0 64 -14 64 -41 0 -26 -21 -37 -95 -53 -82 -17 -117 -41 -129 -88 -11 -42 6 -81 46 -111 30 -22 115 -34 172 -23 40 8 96 58 96 87 0 28 -80 28 -98 -1 -9 -15 -23 -20 -55 -20 -46 0 -67 13 -67 42 0 22 21 33 95 48 105 22 135 46 135 113 0 42 -31 84 -76 103 -50 21 -141 18 -191 -7z"></path><path id="pZQHZbnig" d="M6570 660 l0 -260 50 0 50 0 0 103 1 102 22 -26 c31 -37 58 -49 111 -49 55 0 101 35 116 88 5 20 10 97 10 170 l0 132 -50 0 -50 0 0 -129 c0 -115 -2 -131 -21 -155 -25 -32 -75 -35 -110 -7 -23 18 -24 26 -27 155 l-4 136 -49 0 -49 0 0 -260z"></path><path id="pSEnh5af6" d="M7020 660 l0 -260 50 0 50 0 0 100 c0 55 2 100 4 100 2 0 20 -16 39 -35 30 -30 42 -35 80 -35 94 0 152 74 152 195 0 120 -59 195 -152 195 -38 0 -50 -5 -80 -35 -19 -19 -37 -35 -39 -35 -2 0 -4 16 -4 35 l0 35 -50 0 -50 0 0 -260z m253 148 c26 -35 27 -126 3 -163 -40 -60 -123 -49 -146 20 -17 52 -8 121 21 151 32 35 93 31 122 -8z"></path><path id="pEq6IS1Dx" d="M7580 913 c-110 -41 -152 -212 -79 -315 42 -59 150 -86 226 -57 149 56 149 312 0 368 -29 11 -121 14 -147 4z m112 -74 c25 -13 48 -68 48 -114 0 -108 -85 -164 -144 -94 -22 26 -26 40 -26 96 0 58 3 67 29 94 31 31 59 36 93 18z"></path><path id="p1Dj9HjAqY" d="M7964 910 c-51 -20 -76 -98 -49 -150 18 -35 56 -54 125 -64 85 -13 98 -17 104 -33 4 -9 -1 -26 -9 -39 -20 -31 -83 -33 -110 -4 -13 14 -31 20 -62 20 -49 0 -55 -13 -23 -52 62 -79 239 -77 290 4 10 17 15 64 18 176 l4 152 -51 0 c-50 0 -51 0 -51 -31 l0 -31 -35 31 c-30 26 -44 31 -83 30 -26 0 -57 -4 -68 -9z m159 -78 c10 -10 20 -35 24 -56 l6 -38 -54 7 c-67 9 -99 28 -99 60 0 52 80 70 123 27z"></path><path id="pEewqcGR3" d="M8340 725 l0 -195 50 0 50 0 0 38 1 37 15 -27 c18 -34 43 -48 83 -48 30 0 31 2 31 44 0 39 -2 44 -20 39 -28 -7 -67 4 -90 27 -18 18 -20 34 -20 150 l0 130 -50 0 -50 0 0 -195z"></path><path id="pfyGTbPVc" d="M8680 897 c-56 -37 -75 -80 -75 -172 0 -63 4 -88 21 -115 29 -50 78 -80 131 -80 38 0 51 6 79 34 l34 34 0 -99 0 -99 50 0 50 0 0 260 0 260 -45 0 c-45 0 -45 0 -45 -35 0 -19 -2 -35 -4 -35 -2 0 -20 16 -39 35 -30 30 -42 35 -80 35 -29 0 -55 -8 -77 -23z m173 -90 c25 -33 29 -120 8 -160 -33 -61 -118 -53 -145 14 -25 62 -17 119 22 162 25 28 90 19 115 -16z"></path></g></g><g id="l4TEcxCw5LTAa2fQQE33srp" fill="rgb(153,85,42)" style="transform: none;"><g style="transform: none;"><path id="p94VDC9Wu" d="M316 1215 c-24 -22 -29 -35 -29 -71 0 -23 5 -50 12 -58 11 -13 8 -23 -16 -58 -16 -24 -32 -50 -36 -58 -4 -8 -16 -28 -26 -45 -63 -98 -72 -135 -33 -135 20 0 55 41 66 78 4 12 12 22 17 22 5 0 9 6 9 13 0 7 17 39 39 71 30 47 47 62 80 73 61 20 81 45 81 96 -1 60 -28 89 -88 95 -41 3 -51 0 -76 -23z m102 -67 c3 -29 -25 -52 -52 -42 -41 16 -22 77 22 72 21 -2 28 -9 30 -30z"></path><path id="ppeQaNjA4" d="M912 1230 c-12 -5 -27 -21 -34 -35 l-11 -25 -158 0 c-87 0 -160 -4 -163 -9 -4 -5 -3 -16 0 -25 5 -14 29 -16 163 -16 152 0 156 -1 166 -22 6 -13 27 -31 48 -41 34 -17 41 -18 74 -4 25 10 44 27 56 51 19 36 19 39 2 75 -24 55 -81 75 -143 51z m88 -69 c14 -27 13 -28 -14 -46 -20 -14 -28 -14 -45 -3 -20 12 -28 47 -14 61 14 15 63 7 73 -12z"></path><path id="pTzq3Q4J6" d="M1024 995 c-6 -15 5 -37 94 -174 51 -79 54 -86 43 -116 -16 -46 -14 -69 12 -99 50 -57 138 -49 170 17 16 32 17 41 5 73 -14 40 -51 64 -98 64 -22 0 -33 6 -40 23 -11 24 -19 38 -67 109 -18 26 -33 50 -33 53 0 3 -10 19 -22 35 -23 32 -55 39 -64 15z m266 -310 c6 -8 9 -23 5 -35 -5 -17 -13 -21 -43 -18 -30 2 -38 7 -40 27 -6 38 52 58 78 26z"></path><path id="pzkx88oOY" d="M63 748 c-42 -11 -63 -43 -63 -93 1 -56 39 -95 94 -95 24 0 56 -23 56 -40 0 -5 6 -15 13 -22 7 -7 26 -35 41 -63 16 -27 32 -52 35 -55 3 -3 14 -18 23 -35 10 -19 26 -31 42 -33 46 -6 35 24 -62 173 -7 11 -15 28 -18 38 -4 9 -10 17 -14 17 -4 0 -12 12 -19 26 -9 20 -9 34 0 59 13 35 1 82 -26 105 -23 19 -69 27 -102 18z m72 -78 c8 -26 -11 -50 -40 -50 -29 0 -48 24 -40 50 5 15 15 20 40 20 25 0 35 -5 40 -20z"></path><path id="pKtEtiKKe" d="M1134 519 c-21 -23 -39 -54 -55 -91 -6 -16 -15 -28 -20 -28 -5 0 -9 -5 -9 -10 0 -6 -13 -31 -29 -56 -23 -38 -38 -50 -77 -63 -81 -27 -106 -99 -55 -162 16 -20 28 -24 76 -24 48 0 59 4 76 25 29 38 34 68 15 108 -17 34 -16 37 2 61 11 15 22 36 26 49 4 12 11 22 16 22 4 0 10 8 14 18 3 9 15 33 27 52 38 61 48 82 42 95 -8 23 -30 24 -49 4z m-140 -318 c28 -30 13 -61 -29 -61 -29 0 -36 4 -41 26 -5 18 -1 29 12 39 26 19 38 18 58 -4z"></path><path id="pklktdl6r" d="M318 251 c-28 -25 -33 -36 -33 -73 0 -62 33 -93 99 -93 42 0 52 4 75 32 l27 32 154 3 c142 3 155 5 158 22 2 10 -2 22 -10 27 -7 5 -78 9 -157 9 -138 0 -145 1 -166 24 -50 54 -99 60 -147 17z m92 -45 c6 -8 10 -25 8 -38 -2 -18 -10 -24 -35 -26 -28 -3 -33 1 -39 23 -11 45 37 75 66 41z"></path></g></g><g id="l3YGRXkmJ0d2AScmNqEfCrA" fill="rgb(157,122,51)" style="transform: none;"><g style="transform: none;"><path id="p6W1yf0hG" d="M650 937 c0 -20 8 -24 60 -34 114 -22 191 -95 212 -204 11 -54 16 -64 36 -67 20 -3 22 0 22 49 0 142 -144 279 -294 279 -31 0 -36 -3 -36 -23z"></path><path id="puIh2E0iC" d="M650 835 c0 -20 5 -25 24 -25 71 0 146 -69 146 -133 0 -30 24 -52 46 -43 24 9 14 81 -19 133 -32 50 -105 93 -158 93 -35 0 -39 -3 -39 -25z"></path><path id="pHY4curHy" d="M623 740 c-74 -45 -70 -125 8 -165 61 -32 139 16 139 85 0 37 -28 77 -61 89 -43 15 -49 14 -86 -9z m78 -50 c44 -24 5 -79 -47 -66 -18 5 -24 13 -24 35 0 39 31 52 71 31z"></path><path id="p16dm8ueRH" d="M360 675 c-10 -12 -10 -25 -1 -61 20 -78 83 -184 110 -184 6 0 11 -4 11 -8 0 -18 124 -62 176 -62 20 0 34 6 38 16 9 22 9 22 -65 41 -128 32 -201 107 -218 222 -7 49 -28 64 -51 36z"></path><path id="pVPBKQiKT" d="M463 673 c-20 -52 49 -163 124 -198 47 -22 108 -17 108 10 0 15 -8 21 -34 23 -18 2 -50 14 -70 26 -37 24 -81 96 -81 135 0 26 -37 30 -47 4z"></path></g></g></svg>
