<svg width="442" height="396" viewBox="0 0 442 396" fill="none" xmlns="http://www.w3.org/2000/svg">
<path d="M102.722 386.1C88.8937 373.725 85.6836 355.41 95.0668 340.312C98.03 335.857 95.8076 330.907 75.0657 295.762C51.1138 254.43 47.9037 244.777 57.04 240.075C65.4356 235.372 70.3741 241.065 94.573 283.14L117.29 322.492L129.637 325.71C147.169 329.917 158.033 342.292 158.033 357.637C158.033 379.665 144.452 393.525 122.97 393.525C113.586 393.525 109.636 392.04 102.722 386.1ZM132.847 368.28C141.242 359.865 129.39 343.035 119.019 348.727C112.105 352.44 110.376 358.627 114.821 365.31C119.019 371.745 127.908 373.23 132.847 368.28Z" fill="#A65014"/>
<path d="M291.868 388.575C287.423 385.853 282.485 380.903 281.003 377.438L278.287 371.25H228.408C177.294 371.25 172.849 370.508 172.849 361.103C172.849 358.628 174.578 354.915 176.8 352.935C180.01 349.47 188.406 348.975 229.889 348.975C270.385 348.975 279.028 348.48 279.028 345.51C279.028 339.818 295.078 327.443 304.461 325.71C310.141 324.72 316.561 325.463 323.228 328.185C358.045 342.045 348.414 393.525 310.882 393.525C304.461 393.525 296.807 391.545 291.868 388.575ZM319.771 365.31C327.179 354.173 314.832 342.788 303.968 350.708C298.288 354.668 297.054 363.578 301.745 368.28C306.684 373.23 315.573 371.745 319.771 365.31Z" fill="#A65014"/>
<path d="M24.1989 230.67C20.248 230.175 13.3341 226.215 8.64246 221.76C0.493855 214.088 0 212.603 0 197.753C0 174.488 7.16089 166.073 29.6313 163.35L40.743 162.113L65.4358 121.275C89.8816 80.9325 90.3754 80.4375 98.771 80.4375C114.327 80.4375 112.105 88.605 84.4492 134.145L60.0034 174.488L63.7073 183.15C69.8804 198.248 64.2011 218.048 51.114 226.215C44.6939 230.175 33.5821 232.155 24.1989 230.67ZM42.2246 202.703C46.6693 194.288 41.4838 185.625 32.1006 185.625C26.6682 185.625 23.952 187.11 21.9765 191.565C18.0257 200.228 22.7173 207.9 32.1006 207.9C37.0391 207.9 40.2492 206.168 42.2246 202.703Z" fill="#A65014"/>
<path d="M366.193 153.945C363.724 151.718 351.872 132.165 339.525 110.88L317.302 72.2701L306.931 70.5376C263.965 64.1026 267.669 2.4751 311.128 2.4751C324.956 2.4751 336.068 9.1576 341.501 20.5426C346.686 31.4326 346.686 39.3526 341.747 51.7276L337.797 61.6276L361.502 102.96C374.589 125.73 385.207 145.283 385.207 146.52C385.207 149.243 375.823 158.4 372.86 158.4C371.626 158.4 368.416 156.42 366.193 153.945ZM318.536 44.5501C324.463 38.6101 324.709 33.9076 319.524 28.7101C314.585 23.7601 307.671 23.7601 302.733 28.7101C297.301 34.1551 297.794 41.0851 304.215 45.5401C311.375 50.4901 312.61 50.4901 318.536 44.5501Z" fill="#A65014"/>
<path d="M109.883 69.5476C107.166 68.3101 101.734 63.8551 97.5362 59.4001C91.1161 52.7176 90.1284 49.7476 90.1284 37.1251C90.1284 21.5326 95.067 13.3651 109.142 5.94012C123.711 -1.73238 143.959 4.70262 152.601 19.8001L156.799 27.2251L207.419 27.7201L258.039 28.4626L258.78 35.3926C260.261 49.0051 258.039 49.5001 205.937 49.5001H158.28L148.65 59.6476C140.502 68.5576 137.538 70.0426 126.921 70.7851C120.254 71.2801 112.599 70.7851 109.883 69.5476ZM131.365 45.2926C136.798 40.3426 137.045 35.1451 131.612 29.2051C126.674 23.7601 121.488 23.5126 115.562 28.9576C110.13 33.9076 109.883 39.1051 115.315 45.0451C120.254 50.4901 125.439 50.7376 131.365 45.2926Z" fill="#A65014"/>
<path d="M418.738 229.428C414.074 231.755 407.259 233.32 403.535 232.74L396.849 231.765L370.417 274.065C343.33 317.412 340.345 320.788 332.37 315.804C330.271 314.492 328.038 311.059 327.537 308.125C326.299 303.567 330.329 296.185 352.312 261.004C373.771 226.662 377.931 219.07 375.413 217.496C370.585 214.48 368.596 194.31 372.099 185.435C374.269 180.094 378.301 175.043 384.143 170.832C414.347 148.65 452.901 184.097 433.011 215.927C429.609 221.371 423.874 226.814 418.738 229.428ZM413.794 193.437C408.275 181.252 392.077 185.69 393.036 199.1C393.385 206.015 400.287 211.784 406.761 210.297C413.576 208.732 417.027 200.407 413.794 193.437Z" fill="#A65014"/>
<mask id="path-7-inside-1_0_1" fill="white">
<rect x="120" y="98" width="94" height="94" rx="8"/>
</mask>
<rect x="120" y="98" width="94" height="94" rx="8" fill="#A57B1D" stroke="#A57B1D" stroke-width="24" mask="url(#path-7-inside-1_0_1)"/>
<mask id="path-8-inside-2_0_1" fill="white">
<rect x="120" y="205" width="94" height="94" rx="8"/>
</mask>
<rect x="120" y="205" width="94" height="94" rx="8" fill="#A57B1D" stroke="#A57B1D" stroke-width="24" mask="url(#path-8-inside-2_0_1)"/>
<mask id="path-9-inside-3_0_1" fill="white">
<rect x="227" y="205" width="94" height="94" rx="8"/>
</mask>
<rect x="227" y="205" width="94" height="94" rx="8" stroke="#A57B1D" stroke-width="24" mask="url(#path-9-inside-3_0_1)"/>
<mask id="path-10-inside-4_0_1" fill="white">
<rect x="227" y="98" width="94" height="94" rx="8"/>
</mask>
<rect x="227" y="98" width="94" height="94" rx="8" fill="#A57B1D" stroke="#A57B1D" stroke-width="24" mask="url(#path-10-inside-4_0_1)"/>
<path d="M274 229V275" stroke="#A57B1D" stroke-width="14" stroke-linecap="round"/>
<path d="M251 252H297" stroke="#A57B1D" stroke-width="14" stroke-linecap="round"/>
</svg>

